<?xml version="1.0" ?><!DOCTYPE svg  PUBLIC '-//W3C//DTD SVG 1.1//EN'  'http://www.w3.org/Graphics/SVG/1.1/DTD/svg11.dtd'><svg enable-background="new 0 0 128 128" height="128px" id="Layer_1" version="1.1" viewBox="0 0 128 128" width="128px" xml:space="preserve" xmlns="http://www.w3.org/2000/svg" xmlns:xlink="http://www.w3.org/1999/xlink"><g><path d="M64.001,0C55.46,22.077,23,54.401,23,85.852C23,109.125,41.355,128,64.001,128   C86.646,128,105,109.125,105,85.852C105,54.401,72.217,21.675,64.001,0z M55.529,118.854c-11.903-3.272-21.18-13.274-23.787-25.813   c-0.688-3.772-0.801-7.619-0.508-11.399c0.979-9.356,5.054-19.049,10.291-28.553c-1.955,8.656-4.998,25.229-1.84,38.415   c5.328,22.256,16.642,27.476,16.642,27.476S56.036,118.945,55.529,118.854z" fill="#4B87C8"/></g></svg>